<?xml version="1.0" standalone="no"?>
<!DOCTYPE svg PUBLIC "-//W3C//DTD SVG 20010904//EN"
 "http://www.w3.org/TR/2001/REC-SVG-20010904/DTD/svg10.dtd">
<svg version="1.0" xmlns="http://www.w3.org/2000/svg"
 width="499.000000pt" height="499.000000pt" viewBox="0 0 499.000000 499.000000"
 preserveAspectRatio="xMidYMid meet">

<g transform="translate(0.000000,499.000000) scale(0.100000,-0.100000)"
fill="#000000" stroke="none">
<path d="M314 4808 c-6 -9 -5 -4598 1 -4607 6 -11 4342 -13 4349 -3 2 4 7
1042 10 2306 4 1784 2 2298 -7 2302 -20 7 -4348 10 -4353 2z m4274 -2310 l2
-2218 -2095 0 -2095 0 -1 68 c-1 89 -1 4263 0 4325 l1 47 2093 -2 2092 -3 3
-2217z"/>
<path d="M2476 3694 c-9 -25 -7 -72 4 -79 6 -4 10 13 10 44 0 53 -4 62 -14 35z"/>
<path d="M2164 3515 c22 -19 42 -32 45 -29 7 7 -59 64 -74 63 -5 0 8 -15 29
-34z"/>
<path d="M2752 3519 c-19 -17 -32 -32 -30 -34 6 -6 78 47 78 57 0 15 -14 8
-48 -23z"/>
<path d="M2404 3504 c-52 -19 -111 -74 -135 -128 -29 -64 -22 -171 15 -221 24
-33 27 -12 5 33 -55 111 1 249 121 300 51 21 141 11 191 -22 62 -42 93 -97 97
-175 3 -52 -1 -74 -17 -105 -22 -43 -20 -61 4 -30 35 46 46 149 21 209 -25 60
-93 123 -149 140 -62 18 -99 18 -153 -1z"/>
<path d="M2060 3270 c0 -5 23 -10 50 -10 28 0 50 5 50 10 0 6 -22 10 -50 10
-27 0 -50 -4 -50 -10z"/>
<path d="M2780 3270 c0 -5 20 -10 45 -10 25 0 45 5 45 10 0 6 -20 10 -45 10
-25 0 -45 -4 -45 -10z"/>
<path d="M2100 3144 c0 -21 -48 -62 -84 -72 -49 -14 -98 1 -130 38 -13 17 -27
30 -30 30 -13 0 -5 -20 20 -49 48 -57 147 -61 203 -8 l26 26 28 -24 c56 -49
151 -51 198 -4 24 24 32 24 53 0 10 -10 36 -24 60 -30 53 -13 104 -1 136 34
23 25 24 25 44 6 24 -22 83 -47 106 -45 8 1 25 2 37 3 12 0 35 12 51 26 36 30
53 31 76 6 27 -30 99 -44 147 -30 45 14 85 60 74 87 -5 14 -9 11 -20 -16 -20
-47 -73 -68 -132 -52 -24 7 -57 26 -73 43 l-30 31 -31 -32 c-47 -48 -88 -58
-143 -34 -24 11 -52 32 -62 47 l-17 26 -29 -35 c-55 -67 -141 -64 -199 6 l-27
32 -16 -31 c-10 -21 -30 -37 -59 -48 -41 -15 -47 -15 -83 -1 -21 9 -51 31 -66
49 -15 17 -28 27 -28 21z"/>
<path d="M1850 2804 c0 -8 13 -28 28 -44 51 -50 144 -52 202 -4 l30 26 30 -26
c56 -46 135 -46 191 1 l30 26 22 -20 c32 -30 62 -43 95 -43 35 0 94 23 111 44
11 13 18 11 59 -15 66 -42 136 -37 189 13 21 19 24 20 40 6 34 -30 82 -48 127
-48 37 0 51 6 80 34 20 18 36 41 36 50 0 24 -17 19 -24 -7 -7 -28 -55 -57 -95
-57 -45 0 -94 23 -119 56 l-22 29 -21 -28 c-25 -33 -69 -57 -104 -57 -39 0
-95 30 -108 57 -13 29 -33 30 -42 2 -9 -27 -62 -59 -98 -59 -29 0 -97 27 -97
39 0 3 -7 14 -15 25 -13 18 -16 17 -48 -17 -18 -20 -45 -39 -60 -42 -56 -14
-116 11 -146 62 -10 16 -13 16 -32 -10 -43 -57 -118 -73 -176 -38 -17 11 -34
29 -38 40 -7 25 -25 28 -25 5z"/>
<path d="M1362 2238 c-9 -9 -12 -73 -12 -225 l0 -213 34 0 c19 0 38 6 43 13 4
6 9 108 10 225 l4 212 -34 0 c-18 0 -38 -5 -45 -12z"/>
<path d="M1623 2243 c-10 -3 -13 -58 -13 -224 l0 -219 51 0 c78 0 124 18 180
71 58 57 79 100 79 166 -1 91 -66 180 -150 203 -36 10 -126 12 -147 3z m146
-102 c48 -34 66 -69 66 -126 0 -64 -23 -100 -78 -122 -65 -26 -67 -21 -67 138
l0 141 28 -6 c15 -4 38 -15 51 -25z"/>
<path d="M2044 2237 c-2 -7 20 -83 51 -169 42 -119 55 -169 55 -213 l0 -56 43
3 42 3 6 75 c5 53 22 117 58 218 28 79 51 145 51 148 0 10 -67 3 -82 -8 -9 -7
-28 -50 -43 -96 -15 -45 -30 -80 -34 -78 -4 3 -20 45 -36 95 l-29 91 -38 0
c-22 0 -41 -5 -44 -13z"/>
<path d="M2543 2243 c-10 -3 -13 -58 -13 -224 l0 -219 109 0 c117 0 121 2 121
55 0 23 -4 24 -72 27 l-73 3 -3 183 -2 182 -28 -1 c-15 0 -33 -3 -39 -6z"/>
<path d="M2947 2243 c-4 -3 -7 -105 -7 -225 l0 -218 103 0 c112 0 127 6 127
52 0 27 -1 27 -72 30 l-73 3 -3 183 -2 182 -34 0 c-18 0 -36 -3 -39 -7z"/>
<path d="M3352 2238 c-9 -9 -12 -73 -12 -225 l0 -213 104 0 c111 0 116 2 116
56 0 23 -3 24 -65 24 l-65 0 0 30 c0 30 1 30 53 30 60 0 77 12 77 52 0 26 -2
27 -62 30 l-63 3 -3 72 -3 72 63 3 63 3 3 38 3 37 -98 0 c-64 0 -103 -4 -111
-12z"/>
</g>
</svg>
